<svg width="28" height="28" viewBox="0 0 28 28" fill="none" xmlns="http://www.w3.org/2000/svg">
<path fill-rule="evenodd" clip-rule="evenodd" d="M14.0002 2.33333C20.4437 2.33333 25.6668 7.5565 25.6668 14C25.6668 20.4435 20.4437 25.6667 14.0002 25.6667C7.55666 25.6667 2.3335 20.4435 2.3335 14C2.3335 7.5565 7.55666 2.33333 14.0002 2.33333ZM19.2502 12.25C18.786 12.25 18.3409 12.4344 18.0127 12.7626C17.6845 13.0907 17.5002 13.5359 17.5002 14C17.5002 14.4641 17.6845 14.9092 18.0127 15.2374C18.3409 15.5656 18.786 15.75 19.2502 15.75C19.7143 15.75 20.1594 15.5656 20.4876 15.2374C20.8158 14.9092 21.0002 14.4641 21.0002 14C21.0002 13.5359 20.8158 13.0907 20.4876 12.7626C20.1594 12.4344 19.7143 12.25 19.2502 12.25ZM14.0002 12.25C13.536 12.25 13.0909 12.4344 12.7627 12.7626C12.4345 13.0907 12.2502 13.5359 12.2502 14C12.2502 14.4641 12.4345 14.9092 12.7627 15.2374C13.0909 15.5656 13.536 15.75 14.0002 15.75C14.4643 15.75 14.9094 15.5656 15.2376 15.2374C15.5658 14.9092 15.7502 14.4641 15.7502 14C15.7502 13.5359 15.5658 13.0907 15.2376 12.7626C14.9094 12.4344 14.4643 12.25 14.0002 12.25ZM8.75016 12.25C8.28603 12.25 7.84091 12.4344 7.51273 12.7626C7.18454 13.0907 7.00016 13.5359 7.00016 14C7.00016 14.4641 7.18454 14.9092 7.51273 15.2374C7.84091 15.5656 8.28603 15.75 8.75016 15.75C9.21429 15.75 9.65941 15.5656 9.9876 15.2374C10.3158 14.9092 10.5002 14.4641 10.5002 14C10.5002 13.5359 10.3158 13.0907 9.9876 12.7626C9.65941 12.4344 9.21429 12.25 8.75016 12.25Z" fill="currentColor"/>
</svg>
